<svg width="23" height="25" viewBox="0 0 23 25" fill="none" xmlns="http://www.w3.org/2000/svg">
<path d="M17.6621 0.514374C19.1724 0.514618 20.5039 1.28287 21.2861 2.44992H7.8916C4.68279 2.44992 2.08131 5.05074 2.08105 8.25949V20.0652C2.08111 21.4538 3.20701 22.5798 4.5957 22.5798H6.89258C7.28124 22.5796 7.59644 22.2643 7.59668 21.8757V19.7478C7.59664 19.359 7.28136 19.0439 6.89258 19.0437H6.21094C5.82214 19.0436 5.507 18.7283 5.50684 18.3396V9.50754C5.50684 7.56273 7.08352 5.98608 9.02832 5.98605H22.0215V20.156C22.0213 22.5631 20.0692 24.515 17.6621 24.5154H11.7324V18.1638C11.7324 17.7748 12.0485 17.4597 12.4375 17.4597H19.2363C19.625 17.4595 19.9402 17.1443 19.9404 16.7556V14.6277C19.9404 14.2388 19.6251 13.9237 19.2363 13.9236H12.4375C12.0487 13.9236 11.7326 13.6082 11.7324 13.2195V12.2019C11.7324 11.8129 12.0485 11.4978 12.4375 11.4978H19.2363C19.625 11.4976 19.9402 11.1823 19.9404 10.7937V8.66574C19.9404 8.27689 19.6251 7.96183 19.2363 7.96164H11.0039C9.35084 7.96168 8.01074 9.30172 8.01074 10.9548V24.5154H4.35938C1.95195 24.5153 0.000229994 22.5634 0 20.156V4.87375C2.89485e-05 2.4662 1.95182 0.514397 4.35938 0.514374H17.6621ZM12.7988 19.0437C12.4099 19.0437 12.0948 19.3588 12.0947 19.7478V21.8757C12.095 22.2645 12.41 22.5798 12.7988 22.5798H19.2363C19.625 22.5796 19.9402 22.2643 19.9404 21.8757V19.7478C19.9404 19.359 19.6251 19.0439 19.2363 19.0437H12.7988Z" fill="url(#paint0_linear_181_10)"/>
<defs>
<linearGradient id="paint0_linear_181_10" x1="11.0107" y1="0.514374" x2="11.0107" y2="24.5154" gradientUnits="userSpaceOnUse">
<stop stop-color="#1D7FFF"/>
<stop offset="1" stop-color="#13DDDD"/>
</linearGradient>
</defs>
</svg>
